<svg width="42" height="51" fill="none" xmlns="http://www.w3.org/2000/svg"><path fill-rule="evenodd" clip-rule="evenodd" d="M6.019 6.968a1.696 1.696 0 0 1-.125-.074h.009a.293.293 0 0 1 .01-.014c.007-.01.015-.022.02-.036l.035-.01.035-.012a.321.321 0 0 1 .112.148c.011.025.023.05.04.077 2.464 1.547 3.842.717 4.806-1.441.133-.312.261-.648.386-1.006 1.139-3.344 3.817-3.384 6.408-3.424.829-.012 1.649-.025 2.406-.145 1.828-.287 1.245 1.416.453 2.236-.261.274-.569.504-.887.743-.8.602-1.671 1.255-2.055 2.784.739 0 1.446.005 2.132.01 1.505.01 2.906.019 4.307-.023 2.62-.078 3.064.875 1.62 2.994-.317.467-.573.978-.828 1.487-.319.636-.636 1.27-1.07 1.816-1.513 1.894-1.48 3.189 1.003 4.072.625.222 1.43.778 1.589 1.342.754 2.67 2.558 4.678 4.358 6.68 1.994 2.217 3.98 4.427 4.525 7.525.026.143.043.275.059.396.087.661.13.99 1.205.899 1.834-.172 4.003-.195 4.514 2.144.492 2.23-1.1 3.65-2.803 4.828-.232.158-.408.39-.606.65-.086.114-.176.233-.277.353.157.685.751.703 1.307.72.555.017 1.072.033 1.08.71.01 1.128-1.198 1.653-2.034 1.911-4.264 1.325-8.756 1.775-13.128 1.687-2.334-.052-4.377.694-6.409 1.436-1.474.538-2.943 1.075-4.513 1.302-.23.035-.456.086-.686.138-.832.19-1.722.392-3.075-.152 1.605-.582 2.665-1.764 3.733-2.954 1.594-1.777 3.205-3.572 6.67-3.426-.607-.252-1.094-.458-1.503-.63l-.003-.002a40.478 40.478 0 0 0-1.811-.735c-2.33-.841-2.642-2.477-.903-4.372.98-1.064 1.658-2.206-.564-2.667-1.222-.251-.93-.774-.607-1.354.233-.418.483-.865.193-1.262-.372-.511.85-.656 1.556-.567 2.089.27 5.041.63 4.23-2.422a21.791 21.791 0 0 1-.195-.821c-.46-2.053-1.12-4.987-4.494-4.543-3.655.48-4.802-.425-2.516-3.742-.465-.208-1.109.032-1.725.263-1.17.437-2.244.838-1.822-1.927.025-.175-.32-.594-.39-.575-.265.084-.537.348-.807.61-.585.567-1.162 1.127-1.656-.16-.353-.917.244-1.16.944-1.444.713-.29 1.532-.623 1.57-1.753-.055-.179-.467-.183-.91-.187-.739-.007-1.566-.015-.968-.84 1.99-2.746.467-3.9-1.236-5.19a40.038 40.038 0 0 1-.528-.405c-.23-.18-.146-.45-.057-.739.043-.136.086-.277.099-.414a.072.072 0 0 0-.003-.015.072.072 0 0 1-.003-.015.594.594 0 0 0-.086-.384c-.046-.031-.088-.055-.131-.079ZM1.478 27.186c-.561-.091-1.2-.68-1.14-1.528.123-1.555 4.865-4.725 6.97-4.6 1.94.107 2.565 1.425 3.153 2.664.238.502.47.99.78 1.38-.091 1.834-1.2 2.87-2.391 2.876-2.34.029-4.698-.356-7.027-.736l-.345-.056ZM8.192 1.878c-2.625.7-4.14 2.094-3.953 4.914-1.758.173-1.248.888-.778 1.547.073.103.146.205.208.303.136-.31.372-.6.616-.898.155-.191.314-.386.451-.591.154-.04.309-.08.464-.122l.73-.19c.237-.521.644-.963 1.057-1.41.842-.913 1.708-1.852 1.205-3.553ZM3.575 9.425c.422-.147.308-.442.092-.783-.109.239-.173.489-.092.783Z" fill="#0E8784"/></svg>