<svg width="49" height="44" fill="none" xmlns="http://www.w3.org/2000/svg"><path fill-rule="evenodd" clip-rule="evenodd" d="M4.122 32.877c.483-3.092-.869-6.261-2.324-9.177-.19-.38-.38-.756-.569-1.127-.398-.785-.786-1.547-1.128-2.28a1.113 1.113 0 0 1-.072-.72l.92-3.856c.088-.373.366-.673.73-.786 1.97-.62 8.258-2.854 8.824-6.138a.31.31 0 0 1 .092-.17l5.363-5.196a.319.319 0 0 1 .468.03c.504.637 1.908 2.053 3.995 1.355l-.648-.656a.317.317 0 0 1 .006-.455l2.452-2.327a.302.302 0 0 1 .216-.088h7.476a.32.32 0 0 1 .247.522L27.769 4.74a.321.321 0 0 0 .072.47l2.531 1.661 2.353 1.545a1.483 1.483 0 0 0 2.19-.677c.397-.967.767-2.472.772-4.71 0-.037.005-.078.02-.114l1.039-2.7a.317.317 0 0 1 .57-.04c.51.889 1.42 2.776 1.42 4.979l.498-.362a.315.315 0 0 1 .438.062l1.09 1.427a.34.34 0 0 1 .061.222c-.072.77-.272 5.015 3.435 6.716a.311.311 0 0 1 .154.15l4.525 9.1c.02.047.03.093.03.145v3.831c0 .584-.246 1.138-.683 1.526-1.774 1.582-6.412 5.971-6.695 9.012a.314.314 0 0 1-.313.284H33.3a.303.303 0 0 1-.149-.036c-.514-.28-3.229-3.857-3.78-7.327a.315.315 0 0 0-.544-.16l-1.784 1.985a.863.863 0 0 1-.648.29.558.558 0 0 1-.55-.465c-.206-1.21-1.121-4.375-4.957-4.375-2.057 0-5.26.797-8.232 1.696 0 0-3.29 1.034-5.722 4.343a.442.442 0 0 1-.36.181H4.569a.454.454 0 0 1-.447-.522ZM40.52 43.202a.99.99 0 0 1-1.517.58 18.333 18.333 0 0 1-4.067-3.79.413.413 0 0 1 .324-.667h5.707c.273 0 .468.253.401.517l-.848 3.36Z" fill="#0E8784"/></svg>